<svg xmlns="http://www.w3.org/2000/svg" xmlns:xlink="http://www.w3.org/1999/xlink" width="500" zoomAndPan="magnify" viewBox="0 0 375 374.999991" height="500" preserveAspectRatio="xMidYMid meet" version="1.2"><defs><clipPath id="6df1de6024"><path d="M 126.09375 107.582031 L 249 107.582031 L 249 216 L 126.09375 216 Z M 126.09375 107.582031 "/></clipPath><clipPath id="6a1336f93b"><path d="M 258 85 L 280 85 L 280 107 L 258 107 Z M 258 85 "/></clipPath><clipPath id="a0ee75c11c"><path d="M 254.078125 88.378906 L 268.949219 74.632812 L 289.3125 96.664062 L 274.441406 110.40625 Z M 254.078125 88.378906 "/></clipPath><clipPath id="824d1a3f8f"><path d="M 254.078125 88.378906 L 268.949219 74.632812 L 289.3125 96.664062 L 274.441406 110.40625 Z M 254.078125 88.378906 "/></clipPath><clipPath id="124a1fd08d"><path d="M 244 95 L 266 95 L 266 117 L 244 117 Z M 244 95 "/></clipPath><clipPath id="dc6f0b0214"><path d="M 240.054688 99.125 L 254.925781 85.378906 L 275.289062 107.410156 L 260.417969 121.152344 Z M 240.054688 99.125 "/></clipPath><clipPath id="f263fe78ed"><path d="M 240.054688 99.125 L 254.925781 85.378906 L 275.289062 107.410156 L 260.417969 121.152344 Z M 240.054688 99.125 "/></clipPath></defs><g id="6eefac8fb7"><g clip-rule="nonzero" clip-path="url(#6df1de6024)"><path style=" stroke:none;fill-rule:evenodd;fill:#00004d;fill-opacity:1;" d="M 248.90625 119.082031 L 172.609375 119.082031 L 172.609375 215.945312 L 160.605469 215.945312 L 160.605469 119.082031 L 126.105469 119.082031 L 126.105469 107.582031 L 248.90625 107.582031 Z M 248.90625 119.082031 "/></g><path style=" stroke:none;fill-rule:evenodd;fill:#ff3131;fill-opacity:1;" d="M 193.15625 154.523438 L 247.230469 154.523438 L 247.230469 165.585938 L 193.15625 165.585938 L 193.15625 215.945312 L 181.222656 215.945312 L 181.222656 132.863281 L 193.15625 132.863281 Z M 193.15625 154.523438 "/><g style="fill:#00004d;fill-opacity:1;"><g transform="translate(77.062499, 266.294836)"><path style="stroke:none" d="M 9.078125 0 L 9.078125 -19.84375 L 1.078125 -19.84375 L 1.078125 -25.203125 L 22.78125 -25.203125 L 22.78125 -19.84375 L 14.796875 -19.84375 L 14.796875 0 Z M 9.078125 0 "/></g></g><g style="fill:#00004d;fill-opacity:1;"><g transform="translate(100.930547, 266.294836)"><path style="stroke:none" d="M 3.03125 0 L 3.03125 -25.203125 L 13.78125 -25.203125 C 15.707031 -25.203125 17.378906 -24.851562 18.796875 -24.15625 C 20.210938 -23.457031 21.300781 -22.457031 22.0625 -21.15625 C 22.832031 -19.863281 23.21875 -18.320312 23.21875 -16.53125 C 23.21875 -14.675781 22.796875 -13.082031 21.953125 -11.75 C 21.117188 -10.414062 19.945312 -9.414062 18.4375 -8.75 L 23.65625 0 L 17.03125 0 L 12.53125 -7.84375 L 8.75 -7.84375 L 8.75 0 Z M 8.671875 -12.671875 L 13.03125 -12.671875 C 14.445312 -12.671875 15.53125 -13 16.28125 -13.65625 C 17.039062 -14.320312 17.421875 -15.265625 17.421875 -16.484375 C 17.421875 -17.710938 17.039062 -18.65625 16.28125 -19.3125 C 15.53125 -19.96875 14.445312 -20.296875 13.03125 -20.296875 L 8.671875 -20.296875 Z M 8.671875 -12.671875 "/></g></g><g style="fill:#00004d;fill-opacity:1;"><g transform="translate(126.274597, 266.294836)"><path style="stroke:none" d="M 3.03125 0 L 3.03125 -25.203125 L 19.578125 -25.203125 L 19.578125 -20.375 L 8.71875 -20.375 L 8.71875 -15.15625 L 18.609375 -15.15625 L 18.609375 -10.375 L 8.71875 -10.375 L 8.71875 -4.859375 L 19.984375 -4.859375 L 19.984375 0 Z M 3.03125 0 "/></g></g><g style="fill:#00004d;fill-opacity:1;"><g transform="translate(148.090639, 266.294836)"><path style="stroke:none" d="M 3.03125 0 L 3.03125 -25.203125 L 7.890625 -25.203125 L 19.015625 -9.859375 L 19.015625 -25.203125 L 24.703125 -25.203125 L 24.703125 0 L 19.84375 0 L 8.71875 -15.4375 L 8.71875 0 Z M 3.03125 0 "/></g></g><g style="fill:#00004d;fill-opacity:1;"><g transform="translate(175.810688, 266.294836)"><path style="stroke:none" d="M 3.03125 0 L 3.03125 -25.203125 L 13 -25.203125 C 15.65625 -25.203125 17.976562 -24.671875 19.96875 -23.609375 C 21.96875 -22.554688 23.519531 -21.082031 24.625 -19.1875 C 25.726562 -17.289062 26.28125 -15.09375 26.28125 -12.59375 C 26.28125 -10.070312 25.726562 -7.867188 24.625 -5.984375 C 23.519531 -4.109375 21.96875 -2.640625 19.96875 -1.578125 C 17.976562 -0.523438 15.65625 0 13 0 Z M 8.75 -5.25 L 12.890625 -5.25 C 14.378906 -5.25 15.6875 -5.554688 16.8125 -6.171875 C 17.9375 -6.785156 18.816406 -7.644531 19.453125 -8.75 C 20.085938 -9.851562 20.40625 -11.132812 20.40625 -12.59375 C 20.40625 -14.082031 20.085938 -15.375 19.453125 -16.46875 C 18.816406 -17.5625 17.925781 -18.410156 16.78125 -19.015625 C 15.644531 -19.628906 14.320312 -19.9375 12.8125 -19.9375 L 8.75 -19.9375 Z M 8.75 -5.25 "/></g></g><g style="fill:#00004d;fill-opacity:1;"><g transform="translate(203.602743, 266.294836)"><path style="stroke:none" d="M 3.03125 0 L 3.03125 -25.203125 L 18.828125 -25.203125 L 18.828125 -20.015625 L 8.75 -20.015625 L 8.75 -13.71875 L 17.890625 -13.71875 L 17.890625 -8.671875 L 8.75 -8.671875 L 8.75 0 Z M 3.03125 0 "/></g></g><g style="fill:#00004d;fill-opacity:1;"><g transform="translate(224.014779, 266.294836)"><path style="stroke:none" d="M 3.03125 0 L 3.03125 -25.203125 L 8.75 -25.203125 L 8.75 -5.359375 L 19.765625 -5.359375 L 19.765625 0 Z M 3.03125 0 "/></g></g><g style="fill:#00004d;fill-opacity:1;"><g transform="translate(244.750819, 266.294836)"><path style="stroke:none" d="M 13.3125 0.5 C 11.132812 0.5 9.257812 0.0625 7.6875 -0.8125 C 6.113281 -1.6875 4.898438 -2.929688 4.046875 -4.546875 C 3.191406 -6.171875 2.765625 -8.113281 2.765625 -10.375 L 2.765625 -25.203125 L 8.5 -25.203125 L 8.5 -10.765625 C 8.5 -6.878906 10.101562 -4.9375 13.3125 -4.9375 C 16.53125 -4.9375 18.140625 -6.878906 18.140625 -10.765625 L 18.140625 -25.203125 L 23.875 -25.203125 L 23.875 -10.375 C 23.875 -8.113281 23.445312 -6.171875 22.59375 -4.546875 C 21.738281 -2.929688 20.523438 -1.6875 18.953125 -0.8125 C 17.378906 0.0625 15.5 0.5 13.3125 0.5 Z M 13.3125 0.5 "/></g></g><g style="fill:#00004d;fill-opacity:1;"><g transform="translate(271.390855, 266.294836)"><path style="stroke:none" d="M 0.96875 0 L 9.546875 -12.890625 L 1.375 -25.203125 L 7.921875 -25.203125 L 10.9375 -20.515625 L 13.25 -17.03125 L 18.609375 -25.203125 L 25.125 -25.203125 L 16.984375 -12.921875 L 25.5625 0 L 18.828125 0 L 15.375 -5.328125 L 13.28125 -8.53125 L 11.15625 -5.328125 L 7.703125 0 Z M 0.96875 0 "/></g></g><g style="fill:#ff3131;fill-opacity:1;"><g transform="translate(130.880192, 290.542891)"><path style="stroke:none" d="M 0.125 0 L 4.015625 -9.796875 L 6.203125 -9.796875 L 10.09375 0 L 7.71875 0 L 7.0625 -1.6875 L 3.15625 -1.6875 L 2.5 0 Z M 3.734375 -3.4375 L 6.5 -3.4375 L 5.109375 -7.03125 Z M 3.734375 -3.4375 "/></g></g><g style="fill:#ff3131;fill-opacity:1;"><g transform="translate(151.370505, 290.542891)"><path style="stroke:none" d="M 5.734375 0.203125 C 4.734375 0.203125 3.847656 -0.015625 3.078125 -0.453125 C 2.304688 -0.890625 1.703125 -1.488281 1.265625 -2.25 C 0.828125 -3.019531 0.609375 -3.90625 0.609375 -4.90625 C 0.609375 -5.894531 0.820312 -6.769531 1.25 -7.53125 C 1.6875 -8.300781 2.289062 -8.90625 3.0625 -9.34375 C 3.832031 -9.78125 4.710938 -10 5.703125 -10 C 6.492188 -10 7.222656 -9.859375 7.890625 -9.578125 C 8.566406 -9.296875 9.140625 -8.898438 9.609375 -8.390625 C 10.078125 -7.878906 10.410156 -7.28125 10.609375 -6.59375 L 8.21875 -6.59375 C 7.988281 -7.019531 7.65625 -7.351562 7.21875 -7.59375 C 6.78125 -7.832031 6.285156 -7.953125 5.734375 -7.953125 C 5.171875 -7.953125 4.664062 -7.820312 4.21875 -7.5625 C 3.78125 -7.300781 3.4375 -6.941406 3.1875 -6.484375 C 2.945312 -6.023438 2.828125 -5.5 2.828125 -4.90625 C 2.828125 -4.3125 2.945312 -3.785156 3.1875 -3.328125 C 3.4375 -2.867188 3.78125 -2.503906 4.21875 -2.234375 C 4.65625 -1.972656 5.171875 -1.84375 5.765625 -1.84375 C 6.484375 -1.84375 7.082031 -2.023438 7.5625 -2.390625 C 8.039062 -2.753906 8.347656 -3.238281 8.484375 -3.84375 L 5.3125 -3.84375 L 5.3125 -5.5625 L 10.84375 -5.5625 C 10.894531 -4.71875 10.8125 -3.945312 10.59375 -3.25 C 10.375 -2.550781 10.035156 -1.941406 9.578125 -1.421875 C 9.128906 -0.898438 8.578125 -0.5 7.921875 -0.21875 C 7.273438 0.0625 6.546875 0.203125 5.734375 0.203125 Z M 5.734375 0.203125 "/></g></g><g style="fill:#ff3131;fill-opacity:1;"><g transform="translate(173.064153, 290.542891)"><path style="stroke:none" d="M 1.171875 0 L 1.171875 -9.796875 L 7.609375 -9.796875 L 7.609375 -7.921875 L 3.390625 -7.921875 L 3.390625 -5.890625 L 7.234375 -5.890625 L 7.234375 -4.03125 L 3.390625 -4.03125 L 3.390625 -1.890625 L 7.765625 -1.890625 L 7.765625 0 Z M 1.171875 0 "/></g></g><g style="fill:#ff3131;fill-opacity:1;"><g transform="translate(191.819439, 290.542891)"><path style="stroke:none" d="M 1.171875 0 L 1.171875 -9.796875 L 3.0625 -9.796875 L 7.390625 -3.84375 L 7.390625 -9.796875 L 9.609375 -9.796875 L 9.609375 0 L 7.71875 0 L 3.390625 -6 L 3.390625 0 Z M 1.171875 0 "/></g></g><g style="fill:#ff3131;fill-opacity:1;"><g transform="translate(212.869438, 290.542891)"><path style="stroke:none" d="M 5.671875 0.203125 C 4.679688 0.203125 3.800781 -0.015625 3.03125 -0.453125 C 2.269531 -0.890625 1.675781 -1.488281 1.25 -2.25 C 0.820312 -3.019531 0.609375 -3.90625 0.609375 -4.90625 C 0.609375 -5.894531 0.820312 -6.769531 1.25 -7.53125 C 1.675781 -8.300781 2.269531 -8.90625 3.03125 -9.34375 C 3.789062 -9.78125 4.664062 -10 5.65625 -10 C 6.488281 -10 7.25 -9.835938 7.9375 -9.515625 C 8.625 -9.203125 9.203125 -8.753906 9.671875 -8.171875 C 10.148438 -7.597656 10.484375 -6.914062 10.671875 -6.125 L 8.375 -6.125 C 8.1875 -6.664062 7.851562 -7.09375 7.375 -7.40625 C 6.894531 -7.71875 6.34375 -7.875 5.71875 -7.875 C 5.175781 -7.875 4.6875 -7.75 4.25 -7.5 C 3.8125 -7.25 3.472656 -6.898438 3.234375 -6.453125 C 2.992188 -6.003906 2.875 -5.488281 2.875 -4.90625 C 2.875 -4.3125 2.992188 -3.789062 3.234375 -3.34375 C 3.472656 -2.894531 3.804688 -2.546875 4.234375 -2.296875 C 4.671875 -2.046875 5.164062 -1.921875 5.71875 -1.921875 C 6.351562 -1.921875 6.914062 -2.082031 7.40625 -2.40625 C 7.894531 -2.738281 8.238281 -3.1875 8.4375 -3.75 L 10.734375 -3.75 C 10.578125 -2.957031 10.257812 -2.265625 9.78125 -1.671875 C 9.3125 -1.078125 8.722656 -0.613281 8.015625 -0.28125 C 7.304688 0.0390625 6.523438 0.203125 5.671875 0.203125 Z M 5.671875 0.203125 "/></g></g><g style="fill:#ff3131;fill-opacity:1;"><g transform="translate(234.437155, 290.542891)"><path style="stroke:none" d="M 3.734375 0 L 3.734375 -3.4375 L 0.125 -9.796875 L 2.65625 -9.796875 L 3.875 -7.53125 L 4.859375 -5.75 L 5.828125 -7.53125 L 7.03125 -9.796875 L 9.5625 -9.796875 L 5.96875 -3.453125 L 5.96875 0 Z M 3.734375 0 "/></g></g><g clip-rule="nonzero" clip-path="url(#6a1336f93b)"><g clip-rule="nonzero" clip-path="url(#a0ee75c11c)"><g clip-rule="nonzero" clip-path="url(#824d1a3f8f)"><path style=" stroke:none;fill-rule:nonzero;fill:#00004d;fill-opacity:1;" d="M 279.140625 85.933594 L 261.21875 85.136719 C 257.757812 84.984375 257.175781 91.726562 261.277344 91.835938 L 272.425781 92.136719 L 271.574219 103.359375 C 271.316406 106.773438 277.976562 107.136719 278.167969 103.664062 Z M 279.140625 85.933594 "/></g></g></g><g clip-rule="nonzero" clip-path="url(#124a1fd08d)"><g clip-rule="nonzero" clip-path="url(#dc6f0b0214)"><g clip-rule="nonzero" clip-path="url(#f263fe78ed)"><path style=" stroke:none;fill-rule:nonzero;fill:#ff3131;fill-opacity:1;" d="M 265.113281 96.679688 L 247.195312 95.882812 C 243.734375 95.730469 243.148438 102.472656 247.25 102.582031 L 258.402344 102.882812 L 257.550781 114.105469 C 257.289062 117.519531 263.953125 117.882812 264.144531 114.410156 Z M 265.113281 96.679688 "/></g></g></g></g></svg>